<?xml version="1.0" encoding="utf-8"?>
<!-- Generator: Adobe Illustrator 24.0.2, SVG Export Plug-In . SVG Version: 6.00 Build 0)  -->
<svg version="1.1" id="Layer_1" xmlns="http://www.w3.org/2000/svg" xmlns:xlink="http://www.w3.org/1999/xlink" x="0px" y="0px"
	 viewBox="0 0 400 175.7" style="enable-background:new 0 0 400 175.7;" xml:space="preserve">
<style type="text/css">
	.st0{fill:#FFFFFF;}
	.st1{fill:#F9BE56;}
</style>
<g>
	<g>
		<path class="st0" d="M5,96.6h11.7l19.1,26.5l19.9-26.5h11.1v63.1H55v-44.2l-19.3,26.1l-18.9-25.7v43.8H5V96.6z"/>
		<path class="st1" d="M104.4,159.7c-4.5,0-8.7-0.8-12.6-2.5c-3.9-1.7-7.3-3.9-10.2-6.7c-2.9-2.8-5.2-6.2-6.9-10
			c-1.7-3.8-2.5-8-2.5-12.4c0-4.4,0.8-8.5,2.5-12.3c1.7-3.8,4-7.2,6.9-10c2.9-2.9,6.3-5.1,10.2-6.8c3.9-1.7,8.1-2.5,12.6-2.5
			c4.5,0,8.7,0.8,12.6,2.5c3.9,1.7,7.3,3.9,10.3,6.8c2.9,2.9,5.2,6.2,6.9,10c1.7,3.8,2.5,7.9,2.5,12.3c0,4.4-0.8,8.5-2.5,12.4
			c-1.7,3.9-4,7.2-6.9,10c-2.9,2.8-6.4,5.1-10.3,6.7C113.1,158.9,108.9,159.7,104.4,159.7z M104.4,148.1c2.9,0,5.6-0.5,8.1-1.6
			c2.5-1.1,4.7-2.5,6.6-4.3c1.9-1.8,3.3-3.9,4.4-6.4c1.1-2.4,1.6-5,1.6-7.8c0-2.8-0.5-5.4-1.6-7.8c-1.1-2.4-2.5-4.6-4.4-6.4
			c-1.9-1.8-4.1-3.2-6.6-4.3c-2.5-1.1-5.2-1.6-8.1-1.6c-2.9,0-5.6,0.5-8.1,1.6c-2.5,1.1-4.7,2.5-6.5,4.3c-1.8,1.8-3.3,3.9-4.4,6.4
			c-1.1,2.4-1.6,5-1.6,7.8c0,2.8,0.5,5.4,1.6,7.8c1.1,2.4,2.5,4.6,4.4,6.4c1.8,1.8,4,3.2,6.5,4.3
			C98.9,147.6,101.5,148.1,104.4,148.1z"/>
		<path class="st1" d="M142.2,96.6h13.3l27.3,42.9V96.6h11.7v63.1H182l-28.1-44.3v44.3h-11.7V96.6z"/>
		<path class="st1" d="M223,159.7c-5.7,0-10.5-1.1-14.4-3.2c-3.9-2.2-7.3-4.8-10.2-8.1l10.7-8.1c1.6,2.6,3.6,4.7,6,6.1
			c2.4,1.4,5,2.1,7.9,2.1c3.1,0,5.5-0.8,7.1-2.5c1.6-1.7,2.5-3.6,2.5-5.7c0-1.3-0.4-2.4-1.1-3.3s-1.7-1.7-2.9-2.3
			c-1.2-0.6-2.6-1.2-4.2-1.7c-1.6-0.5-3.2-1-4.9-1.5c-2.1-0.7-4.3-1.4-6.4-2.2c-2.1-0.8-4-1.8-5.7-3.1c-1.7-1.3-3.1-2.9-4.1-4.9
			c-1.1-1.9-1.6-4.3-1.6-7.3c0-2.5,0.5-4.8,1.6-6.9c1-2.1,2.5-4,4.4-5.6c1.9-1.6,4.1-2.8,6.7-3.7c2.6-0.9,5.3-1.3,8.3-1.3
			c2.5,0,4.8,0.2,6.9,0.7c2,0.5,3.9,1.1,5.6,1.9c1.7,0.8,3.3,1.8,4.7,2.9c1.4,1.1,2.7,2.3,4,3.7l-9.7,7.5c-2.7-4.2-6.5-6.2-11.4-6.2
			c-2.9,0-5.1,0.7-6.6,2c-1.5,1.3-2.2,3-2.2,5c0,1.2,0.3,2.3,1,3.1c0.7,0.8,1.6,1.6,2.8,2.2c1.2,0.6,2.5,1.2,4.1,1.7
			c1.6,0.5,3.2,1,4.9,1.6c2.1,0.7,4.3,1.4,6.4,2.3c2.2,0.9,4.1,2,5.9,3.4c1.8,1.4,3.2,3,4.3,5c1.1,2,1.6,4.5,1.6,7.4
			c0,2.4-0.5,4.8-1.5,7c-1,2.3-2.4,4.3-4.2,6.1c-1.8,1.8-4.1,3.2-6.8,4.3C229.6,159.2,226.5,159.7,223,159.7z"/>
		<path class="st1" d="M263.7,107.8h-16.8V96.6h45.5v11.2h-16.9v51.8h-11.7V107.8z"/>
		<path class="st1" d="M298.3,96.6h37.4v11.2H310v14.5h25.7v11.2H310v14.9h25.7v11.2h-37.4V96.6z"/>
		<path class="st1" d="M342.2,159.6V96.6h20.2c3.7,0,7.1,0.5,10,1.6c2.9,1.1,5.4,2.6,7.4,4.5c2,1.9,3.6,4.2,4.6,6.9
			c1.1,2.7,1.6,5.7,1.6,8.9c0,3.8-0.9,7.4-2.7,10.7c-1.8,3.3-4.4,5.9-7.9,7.7l12.6,22.7h-13.4l-10.1-19.3H354v19.3H342.2z
			 M361.4,129.6c2.4,0,4.4-0.3,6.1-0.9c1.6-0.6,3-1.4,4-2.5c1-1.1,1.7-2.3,2.2-3.7c0.4-1.4,0.6-2.9,0.6-4.4c0-3.2-1-5.8-3.1-7.7
			c-2-1.9-5.3-2.9-9.8-2.9H354v22H361.4z"/>
	</g>
	<g>
		<path class="st1" d="M5.1,11h20.2c7.1,0,12.6,1.5,16.5,4.6c3.9,3.1,5.9,7.5,5.9,13.4c0,5.6-2.3,9.7-7,12.5c3,1.4,5.3,3.3,6.9,5.7
			c1.6,2.5,2.4,5.5,2.4,9.1c0,6.3-2.1,11.1-6.2,14.3c-4.1,3.2-9.8,4.8-16.9,4.8H5.1V11z M17,22v14.6h8.3c3.8,0,6.5-0.7,8-2.1
			c1.5-1.4,2.3-3.3,2.3-5.5c0-2.4-0.8-4.2-2.4-5.3C31.7,22.6,29,22,25.3,22H17z M17,47.8v16.5h9.9c3.6,0,6.4-0.7,8.2-2.2
			c1.8-1.4,2.8-3.5,2.8-6.1c0-2.6-0.8-4.7-2.4-6.1c-1.6-1.4-4.7-2.1-9.1-2.1H17z"/>
		<path class="st1" d="M56,11h12v64.3H56V11z"/>
		<path class="st1" d="M75.8,11h13.6l27.8,43.8V11h12v64.3h-12.8L87.7,30.1v45.2h-12V11z"/>
		<path class="st1" d="M168.1,75.4c-5,0-9.5-0.9-13.6-2.6c-4.1-1.7-7.6-4.1-10.6-7c-2.9-2.9-5.2-6.4-6.8-10.3
			c-1.6-3.9-2.4-8-2.4-12.4c0-4.5,0.8-8.7,2.5-12.6c1.6-3.9,3.9-7.3,6.8-10.2c2.9-2.9,6.4-5.2,10.4-6.9c4-1.7,8.4-2.5,13.2-2.5
			c3.3,0,6.5,0.4,9.4,1.2c2.9,0.8,5.6,1.9,8.1,3.3c2.5,1.4,4.7,3.1,6.7,5.1c2,2,3.6,4.1,5,6.5l-10.6,5.7c-2-3.4-4.5-5.9-7.6-7.6
			c-3.1-1.7-6.7-2.6-11-2.6c-3,0-5.8,0.6-8.3,1.7c-2.6,1.1-4.8,2.6-6.7,4.5c-1.9,1.9-3.4,4-4.4,6.5c-1.1,2.5-1.6,5.1-1.6,8
			c0,2.9,0.5,5.6,1.6,8.1c1.1,2.5,2.5,4.7,4.4,6.5c1.9,1.9,4.2,3.3,6.8,4.4c2.6,1.1,5.5,1.6,8.6,1.6c4.8,0,8.8-1.3,12-3.8
			c3.2-2.5,5.4-5.9,6.6-10.1h-20.5V38.4h33.4v4.8c0,4.3-0.7,8.5-2.2,12.4c-1.5,3.9-3.6,7.3-6.3,10.3c-2.7,2.9-6,5.3-9.9,7
			C177.3,74.5,172.9,75.4,168.1,75.4z"/>
		<path class="st1" d="M205.2,11h38.1v11.4h-26.1v14.8h26.1v11.4h-26.1v15.1h26.1v11.4h-38.1V11z"/>
	</g>
</g>
</svg>
