<?xml version="1.0" encoding="utf-8"?>
<!-- Generator: Adobe Illustrator 24.0.2, SVG Export Plug-In . SVG Version: 6.00 Build 0)  -->
<svg version="1.1" id="Layer_1" xmlns="http://www.w3.org/2000/svg" xmlns:xlink="http://www.w3.org/1999/xlink" x="0px" y="0px"
	 viewBox="0 0 400 100" style="enable-background:new 0 0 400 100;" xml:space="preserve">
<style type="text/css">
	.st0{fill:none;stroke:#FFFFFF;stroke-width:4;stroke-miterlimit:10;}
	.st1{fill:#FFFFFF;}
</style>
<path class="st0" d="M372.8,94.8H27.2c-7.7,0-14-6.2-14-14V19.2c0-7.7,6.2-14,14-14h345.6c7.7,0,14,6.2,14,14v61.5
	C386.8,88.5,380.5,94.8,372.8,94.8z"/>
<g>
	<path class="st1" d="M70.6,19.2h14.2c5,0,8.8,1.1,11.5,3.2c2.7,2.1,4.1,5.2,4.1,9.3c0,3.9-1.6,6.8-5,8.7c2.1,0.9,3.7,2.3,4.9,4.1
		c1.1,1.7,1.7,3.8,1.7,6.4c0,4.4-1.4,7.7-4.3,10c-3,2.2-6.9,3.2-11.8,3.2H70.6V19.2z M79,26.9v10.3h5.8c2.7,0,4.5-0.5,5.6-1.4
		s1.6-2.3,1.6-3.9c0-1.7-0.5-2.9-1.6-3.7c-1.1-0.8-3-1.2-5.5-1.2L79,26.9L79,26.9z M79,45v11.5h6.9c2.5,0,4.5-0.5,5.8-1.5
		c1.4-1,2-2.4,2-4.2c0-1.8-0.6-3.2-1.7-4.2c-1.1-1-3.2-1.4-6.4-1.4L79,45L79,45z"/>
	<path class="st1" d="M138.2,64.2H130v-4.5c-1.1,1.4-2.5,2.5-4.3,3.3c-1.7,0.8-3.8,1.2-6,1.2c-4.2,0-7.7-1.4-10.1-4.1
		c-2.5-2.6-3.8-6.4-3.8-11.1V28.1h8.4v20.1c0,2.8,0.6,4.9,1.9,6.5s3.2,2.3,5.9,2.3c2.3,0,4.2-0.8,5.7-2.5c1.5-1.6,2.3-4.1,2.3-7.1
		V28.1h8.3L138.2,64.2L138.2,64.2z"/>
	<path class="st1" d="M155.8,62.7l-14.9-34.5h8.9l10.1,24.7l9.5-24.7h8.7l-21.5,52.6h-8.4L155.8,62.7z"/>
	<path class="st1" d="M196.1,28.1h8.3v5c1.2-1.5,2.7-2.7,4.5-3.6c1.8-0.9,3.9-1.4,6.2-1.4c4.5,0,7.9,1.4,10.5,4.1
		c2.5,2.6,3.8,6.4,3.8,11.1v20.9h-8.6v-20c0-2.7-0.6-4.9-2.1-6.5c-1.4-1.6-3.4-2.3-6.1-2.3c-2.3,0-4.4,0.8-5.9,2.5
		c-1.6,1.6-2.4,4.1-2.4,7.1v19.4H196L196.1,28.1L196.1,28.1z"/>
	<path class="st1" d="M251.8,64.3c-2.5,0-5-0.5-7.3-1.4c-2.3-0.9-4.2-2.3-5.9-3.9c-1.7-1.6-3.1-3.5-4-5.8c-1-2.2-1.4-4.5-1.4-7
		s0.5-5,1.4-7.1c1-2.2,2.3-4.1,4-5.8c1.7-1.6,3.7-3,5.9-3.9c2.3-0.9,4.8-1.4,7.3-1.4c2.5,0,5,0.5,7.3,1.4c2.3,0.9,4.2,2.3,5.9,3.9
		c1.7,1.6,3.1,3.5,4.1,5.8c1,2.2,1.4,4.5,1.4,7.1c0,2.5-0.5,4.9-1.4,7c-1,2.2-2.3,4.1-4.1,5.8s-3.7,3-5.9,3.9
		C256.8,63.8,254.3,64.3,251.8,64.3z M251.8,56.4c1.4,0,2.8-0.3,4.1-0.8c1.3-0.5,2.3-1.3,3.3-2.2c0.9-0.9,1.7-2.1,2.3-3.2
		c0.5-1.3,0.8-2.5,0.8-4c0-1.4-0.3-2.8-0.8-4.1c-0.5-1.3-1.3-2.3-2.3-3.2c-0.9-0.9-2.1-1.6-3.3-2.2c-1.3-0.5-2.6-0.8-4.1-0.8
		c-1.4,0-2.9,0.3-4.1,0.8c-1.4,0.5-2.4,1.3-3.3,2.2s-1.6,2.1-2.2,3.2c-0.5,1.2-0.8,2.5-0.8,4.1c0,1.4,0.3,2.7,0.8,4
		c0.5,1.3,1.3,2.3,2.2,3.2s2.1,1.6,3.3,2.2C248.9,56.2,250.4,56.4,251.8,56.4z"/>
	<path class="st1" d="M270,28.1h8.5l7.9,24.9l9.1-24.9h8.3l8.9,25l8.3-25h8.4l-12.6,36h-8l-9.2-24.9l-9.3,24.9h-8.2L270,28.1z"/>
</g>
</svg>
