<?xml version="1.0" encoding="utf-8"?>
<!-- Generator: Adobe Illustrator 24.0.2, SVG Export Plug-In . SVG Version: 6.00 Build 0)  -->
<svg version="1.1" id="Layer_1" xmlns="http://www.w3.org/2000/svg" xmlns:xlink="http://www.w3.org/1999/xlink" x="0px" y="0px"
	 viewBox="0 0 400 100" style="enable-background:new 0 0 400 100;" xml:space="preserve">
<style type="text/css">
	.st0{fill:#FFFFFF;}
</style>
<g>
	<path class="st0" d="M36.6,66c-3.8,0-7.3-0.7-10.5-2c-3.2-1.3-5.9-3.1-8.1-5.4c-2.3-2.3-4-4.9-5.2-7.9c-1.2-3-1.8-6.2-1.8-9.5
		c0-3.4,0.6-6.6,1.9-9.7c1.3-3,3-5.6,5.2-7.8c2.2-2.2,4.9-4,8-5.3c3.1-1.3,6.5-1.9,10.1-1.9c2.6,0,5,0.3,7.2,0.9
		c2.3,0.6,4.3,1.4,6.2,2.5c1.9,1.1,3.6,2.4,5.1,3.9c1.5,1.5,2.8,3.2,3.8,5l-8.1,4.4c-1.5-2.6-3.5-4.5-5.8-5.8c-2.4-1.3-5.2-2-8.4-2
		c-2.3,0-4.4,0.4-6.4,1.3c-2,0.8-3.7,2-5.1,3.4c-1.5,1.4-2.6,3.1-3.4,5c-0.8,1.9-1.2,3.9-1.2,6.1c0,2.2,0.4,4.3,1.2,6.2
		s1.9,3.6,3.4,5c1.5,1.4,3.2,2.6,5.2,3.4c2,0.8,4.2,1.2,6.6,1.2c3.7,0,6.8-1,9.2-2.9c2.5-1.9,4.1-4.5,5-7.8H35.1v-8.8h25.6v3.6
		c0,3.3-0.6,6.5-1.7,9.5c-1.1,3-2.7,5.6-4.8,7.9c-2.1,2.3-4.6,4-7.6,5.4C43.6,65.3,40.3,66,36.6,66z"/>
	<path class="st0" d="M83.7,66c-2.4,0-4.7-0.4-7.1-1.3c-2.3-0.9-4.4-2.2-6.2-3.9c-1.8-1.7-3.3-3.8-4.5-6.2c-1.1-2.5-1.7-5.2-1.7-8.4
		c0-3.2,0.6-6,1.7-8.4c1.1-2.5,2.6-4.5,4.4-6.2c1.8-1.7,3.9-3,6.3-3.9c2.4-0.9,4.8-1.3,7.3-1.3c2.6,0,5,0.5,7.2,1.4
		c2.2,0.9,4,2.2,5.5,3.9v-5.2h9.1v39.5h-9.1v-5.6c-1.4,1.8-3.3,3.2-5.5,4.2C88.7,65.5,86.3,66,83.7,66z M85.2,57.6
		c1.7,0,3.3-0.3,4.7-0.9c1.4-0.6,2.7-1.4,3.7-2.5c1-1.1,1.9-2.3,2.5-3.7c0.6-1.4,0.9-2.9,0.9-4.5c0-1.6-0.3-3-0.9-4.4
		c-0.6-1.4-1.4-2.6-2.5-3.6c-1-1-2.3-1.9-3.7-2.4c-1.4-0.6-3-0.9-4.7-0.9c-1.7,0-3.2,0.3-4.7,0.9c-1.5,0.6-2.7,1.4-3.8,2.4
		c-1.1,1-1.9,2.2-2.5,3.6c-0.6,1.4-0.9,2.9-0.9,4.5c0,1.6,0.3,3.1,0.9,4.5c0.6,1.4,1.5,2.6,2.5,3.7c1.1,1,2.4,1.9,3.8,2.4
		C81.9,57.3,83.5,57.6,85.2,57.6z"/>
	<path class="st0" d="M110.9,15.9h9.2v50h-9.2V15.9z"/>
	<path class="st0" d="M143.5,66c-2.4,0-4.7-0.4-7.1-1.3c-2.3-0.9-4.4-2.2-6.2-3.9c-1.8-1.7-3.3-3.8-4.5-6.2
		c-1.1-2.5-1.7-5.2-1.7-8.4c0-3.2,0.6-6,1.7-8.4c1.1-2.5,2.6-4.5,4.4-6.2c1.8-1.7,3.9-3,6.3-3.9c2.4-0.9,4.8-1.3,7.3-1.3
		c2.6,0,5,0.5,7.2,1.4c2.2,0.9,4,2.2,5.5,3.9v-5.2h9.1v39.5h-9.1v-5.6c-1.4,1.8-3.3,3.2-5.5,4.2C148.5,65.5,146.1,66,143.5,66z
		 M145,57.6c1.7,0,3.3-0.3,4.7-0.9c1.4-0.6,2.7-1.4,3.7-2.5c1-1.1,1.9-2.3,2.5-3.7c0.6-1.4,0.9-2.9,0.9-4.5c0-1.6-0.3-3-0.9-4.4
		c-0.6-1.4-1.4-2.6-2.5-3.6c-1-1-2.3-1.9-3.7-2.4c-1.4-0.6-3-0.9-4.7-0.9c-1.7,0-3.2,0.3-4.7,0.9c-1.5,0.6-2.7,1.4-3.8,2.4
		c-1.1,1-1.9,2.2-2.5,3.6c-0.6,1.4-0.9,2.9-0.9,4.5c0,1.6,0.3,3.1,0.9,4.5c0.6,1.4,1.5,2.6,2.5,3.7c1.1,1,2.4,1.9,3.8,2.4
		C141.7,57.3,143.3,57.6,145,57.6z"/>
	<path class="st0" d="M182.5,45.8l-14.3-19.4h11.1l9,12.6l8.9-12.6h10.8l-14.2,19.5l15.1,20h-11.1l-9.7-13.2l-9.4,13.2h-11.1
		L182.5,45.8z"/>
	<path class="st0" d="M225.4,64.2l-16.2-37.8h9.7l11,27l10.4-27h9.6l-23.6,57.7h-9.3L225.4,64.2z"/>
	<path class="st0" d="M270,16.6h9.1L294,37.3l15.5-20.7h8.7v49.3h-9.2V31.3l-15.1,20.4l-14.8-20.1v34.3H270V16.6z"/>
	<path class="st0" d="M337,66c-3.2,0-6-0.5-8.7-1.6c-2.6-1.1-5-2.8-7.1-5.3l8-5.9c1,1.6,2.2,2.7,3.5,3.4c1.3,0.7,2.7,1,4.3,1
		c2.1,0,3.9-0.6,5.2-1.7c1.4-1.1,2.1-2.8,2.1-4.8c0-2.1-0.8-3.7-2.3-5c-1.6-1.2-3.6-1.9-6.1-1.9h-5.1v-8.4h5.1
		c2.7,0,4.7-0.6,5.9-1.8c1.3-1.2,1.9-2.6,1.9-4.1c0-1.6-0.6-2.9-1.9-3.9s-3-1.5-5.1-1.5c-1.9,0-3.5,0.4-4.6,1.2
		c-1.1,0.8-2.1,1.8-2.9,3.2l-7.8-3.6c1.4-2.7,3.5-4.9,6.2-6.4c2.7-1.5,5.7-2.3,9-2.3c2.4,0,4.6,0.3,6.6,0.9c2,0.6,3.7,1.5,5.1,2.6
		c1.4,1.1,2.5,2.5,3.2,4.1c0.8,1.6,1.1,3.4,1.1,5.5c0,2.1-0.5,4.1-1.5,5.7c-1,1.7-2.4,3.1-4.1,4.3c2,1.2,3.6,2.7,4.8,4.6
		c1.1,1.9,1.7,4.1,1.7,6.7c0,2.1-0.4,4.1-1.1,5.9c-0.7,1.8-1.8,3.4-3.1,4.7c-1.4,1.3-3.1,2.4-5.1,3.1C342.1,65.6,339.7,66,337,66z"
		/>
	<path class="st0" d="M357.4,57.4c0-2.1,0.4-4,1.1-5.7c0.8-1.7,1.8-3.2,3-4.6c1.2-1.4,2.6-2.7,4.2-3.8c1.6-1.2,3.1-2.2,4.6-3.3
		c1.2-0.8,2.4-1.7,3.5-2.4c1.1-0.8,2.1-1.6,3-2.3c0.9-0.8,1.5-1.6,2.1-2.4c0.5-0.8,0.8-1.7,0.8-2.6c0-1.6-0.6-3-1.7-4.1
		c-1.1-1.1-2.8-1.7-5-1.7c-2.2,0-3.9,0.7-5.3,2c-1.4,1.3-2.5,3.1-3.3,5.2l-7.9-3.9c1.5-3.5,3.7-6.2,6.5-8.3c2.8-2,6.2-3,10.2-3
		c2.5,0,4.8,0.4,6.7,1.1c2,0.7,3.6,1.7,5,2.9c1.4,1.2,2.5,2.7,3.2,4.3c0.7,1.7,1.1,3.4,1.1,5.4c0,1.9-0.4,3.6-1.1,5.2
		s-1.7,2.9-2.8,4.2c-1.2,1.3-2.5,2.4-4,3.5c-1.5,1.1-2.9,2.1-4.4,3.1c-1.3,0.8-2.5,1.7-3.7,2.5c-1.2,0.8-2.3,1.7-3.2,2.6
		c-0.9,0.9-1.7,1.8-2.3,2.8c-0.6,1-0.9,2-0.9,3.2h22.2v8.8h-31.4V57.4z"/>
</g>
</svg>
