<?xml version="1.0" encoding="utf-8"?>
<!-- Generator: Adobe Illustrator 24.0.2, SVG Export Plug-In . SVG Version: 6.00 Build 0)  -->
<svg version="1.1" id="Layer_1" xmlns="http://www.w3.org/2000/svg" xmlns:xlink="http://www.w3.org/1999/xlink" x="0px" y="0px"
	 viewBox="0 0 300 105.6" style="enable-background:new 0 0 300 105.6;" xml:space="preserve">
<style type="text/css">
	.st0{fill:#FFFFFF;}
	.st1{opacity:0;}
</style>
<g>
	<g id="XMLID_169_">
		<g id="XMLID_170_">
			<polygon id="XMLID_177_" class="st0" points="225.3,62 224.8,36.2 233,36.2 233,68.7 221.3,68.7 213.2,42 213,42 213.4,68.7 
				205.4,68.7 205.4,36.2 217.6,36.2 225.1,62 			"/>
			<polygon id="XMLID_176_" class="st0" points="77.6,39.2 73.1,69 64.2,69 70.3,36.2 84.9,36.2 91,69 82.1,69 77.8,39.2 			"/>
			<polygon id="XMLID_175_" class="st0" points="115.8,61.3 119.9,36.2 133.3,36.2 134,69 125.8,69 125.6,39.5 125.4,39.5 119.9,69 
				111.6,69 106.1,39.5 105.9,39.5 105.7,69 97.5,69 98.2,36.2 111.6,36.2 115.7,61.3 			"/>
			<path id="XMLID_174_" class="st0" d="M50.4,59.8c0.3,0.8,0.2,1.8,0.1,2.4c-0.3,1.1-1,2.2-3.2,2.2c-2.1,0-3.3-1.2-3.3-3v-3.2h-8.8
				v2.5c0,7.3,5.8,9.5,11.9,9.5c5.9,0,10.8-2,11.6-7.5c0.4-2.8,0.1-4.7,0-5.4c-1.4-6.9-13.8-8.9-14.8-12.8c-0.2-0.7-0.1-1.3,0-1.7
				c0.2-1.1,0.9-2.2,3-2.2c1.9,0,3,1.2,3,3v2h8.2v-2.3c0-7.2-6.4-8.3-11.1-8.3c-5.8,0-10.6,1.9-11.5,7.3c-0.2,1.5-0.3,2.8,0.1,4.4
				C37,53.6,48.7,55.5,50.4,59.8"/>
			<path id="XMLID_173_" class="st0" d="M157.1,59.7c0.3,0.8,0.2,1.8,0.1,2.4c-0.3,1.1-1,2.2-3.2,2.2c-2,0-3.3-1.2-3.3-2.9v-3.2H142
				v2.5c0,7.3,5.7,9.4,11.8,9.4c5.9,0,10.7-2,11.5-7.4c0.4-2.8,0.1-4.7,0-5.3c-1.4-6.8-13.7-8.8-14.6-12.6c-0.2-0.7-0.1-1.3,0-1.7
				c0.2-1,0.9-2.2,3-2.2c1.9,0,3,1.2,3,2.9v2h8.1v-2.3c0-7.1-6.4-8.2-11-8.2c-5.8,0-10.5,1.9-11.4,7.2c-0.2,1.4-0.3,2.7,0.1,4.4
				C143.9,53.6,155.5,55.5,157.1,59.7"/>
			<path id="XMLID_172_" class="st0" d="M184.7,64.1c2.3,0,3-1.6,3.1-2.4c0.1-0.4,0.1-0.8,0.1-1.3V36.2h8.3v23.5
				c0,0.6,0,1.8-0.1,2.2c-0.6,6.1-5.4,8.1-11.5,8.1c-6,0-10.9-2-11.4-8.1c0-0.3-0.1-1.6-0.1-2.2V36.2h8.3v24.3c0,0.4,0,0.9,0.1,1.3
				C181.7,62.5,182.4,64.1,184.7,64.1"/>
			<path id="XMLID_171_" class="st0" d="M253.2,63.8c2.4,0,3.2-1.5,3.4-2.4c0.1-0.4,0.1-0.8,0.1-1.3v-4.8h-3.4v-4.8h11.6v8.8
				c0,0.6,0,1.1-0.1,2.2c-0.5,6-5.7,8.1-11.5,8.1c-5.8,0-11-2.1-11.5-8.1c-0.1-1.1-0.1-1.5-0.1-2.2V45.5c0-0.6,0.1-1.6,0.1-2.1
				c0.7-6.2,5.7-8.1,11.5-8.1c5.8,0,10.9,1.9,11.5,8.1c0.1,1,0.1,2.1,0.1,2.1v1.1h-8.3v-1.8c0,0,0-0.8-0.1-1.2
				c-0.1-0.7-0.8-2.4-3.3-2.4c-2.4,0-3.1,1.6-3.3,2.4c-0.1,0.4-0.1,1-0.1,1.5v15c0,0.4,0,0.9,0.1,1.3
				C250,62.3,250.8,63.8,253.2,63.8"/>
		</g>
	</g>
	<g id="XMLID_164_" class="st1">
		<path id="XMLID_168_" class="st0" d="M50.4,24.6c0.3,0.8,0.2,1.8,0.1,2.4c-0.3,1.1-1,2.2-3.2,2.2c-2.1,0-3.3-1.2-3.3-3V23h-8.8
			v2.5c0,7.3,5.8,9.5,11.9,9.5c5.9,0,10.8-2,11.6-7.5c0.4-2.8,0.1-4.7,0-5.4c-1.4-6.9-13.8-8.9-14.8-12.8c-0.2-0.7-0.1-1.3,0-1.7
			c0.2-1.1,0.9-2.2,3-2.2c1.9,0,3,1.2,3,3v2h8.2V8.3C58.1,1.1,51.7,0,47,0c-5.8,0-10.6,1.9-11.5,7.3c-0.2,1.5-0.3,2.8,0.1,4.4
			C37,18.4,48.7,20.4,50.4,24.6"/>
		<path id="XMLID_167_" class="st0" d="M50.4,95c0.3,0.8,0.2,1.8,0.1,2.4c-0.3,1.1-1,2.2-3.2,2.2c-2.1,0-3.3-1.2-3.3-3v-3.2h-8.8
			v2.5c0,7.3,5.8,9.5,11.9,9.5c5.9,0,10.8-2,11.6-7.5c0.4-2.8,0.1-4.7,0-5.4c-1.4-6.9-13.8-8.9-14.8-12.8c-0.2-0.7-0.1-1.3,0-1.7
			c0.2-1.1,0.9-2.2,3-2.2c1.9,0,3,1.2,3,3v2h8.2v-2.3c0-7.2-6.4-8.3-11.1-8.3c-5.8,0-10.6,1.9-11.5,7.3c-0.2,1.5-0.3,2.8,0.1,4.4
			C37,88.8,48.7,90.8,50.4,95"/>
		<path id="XMLID_166_" class="st0" d="M24.6,52.1c0.8-0.3,1.8-0.2,2.4-0.1c1.1,0.3,2.2,1,2.2,3.2c0,2.1-1.2,3.3-3,3.3H23v8.8h2.5
			c7.3,0,9.5-5.8,9.5-11.9c0-5.9-2-10.8-7.5-11.6c-2.8-0.4-4.7-0.1-5.4,0c-6.9,1.4-8.9,13.8-12.8,14.8c-0.7,0.2-1.3,0.1-1.7,0
			c-1.1-0.2-2.2-0.9-2.2-3c0-1.9,1.2-3,3-3h2v-8.2H8.3C1.1,44.4,0,50.9,0,55.5C0,61.4,1.9,66.1,7.3,67c1.5,0.2,2.8,0.3,4.4-0.1
			C18.4,65.5,20.4,53.8,24.6,52.1"/>
		<path id="XMLID_165_" class="st0" d="M289.5,52.1c0.8-0.3,1.8-0.2,2.4-0.1c1.1,0.3,2.2,1,2.2,3.2c0,2.1-1.2,3.3-3,3.3h-3.2v8.8
			h2.5c7.3,0,9.5-5.8,9.5-11.9c0-5.9-2-10.8-7.5-11.6c-2.8-0.4-4.7-0.1-5.4,0c-6.9,1.4-8.9,13.8-12.8,14.8c-0.7,0.2-1.3,0.1-1.7,0
			c-1.1-0.2-2.2-0.9-2.2-3c0-1.9,1.2-3,3-3h2v-8.2H273c-7.2,0-8.3,6.4-8.3,11.1c0,5.8,1.9,10.6,7.3,11.5c1.5,0.2,2.8,0.3,4.4-0.1
			C283.3,65.5,285.2,53.8,289.5,52.1"/>
	</g>
</g>
</svg>
