<?xml version="1.0" encoding="utf-8"?>
<!-- Generator: Adobe Illustrator 24.0.2, SVG Export Plug-In . SVG Version: 6.00 Build 0)  -->
<svg version="1.1" id="Layer_1" xmlns="http://www.w3.org/2000/svg" xmlns:xlink="http://www.w3.org/1999/xlink" x="0px" y="0px"
	 viewBox="0 0 400 90" style="enable-background:new 0 0 400 90;" xml:space="preserve">
<style type="text/css">
	.st0{fill:#F9BE56;}
</style>
<g>
	<path class="st0" d="M28.7,22.2H13.3V11.9h41.6v10.3H39.4v47.4H28.7V22.2z"/>
	<path class="st0" d="M61.6,11.2h10.7v34.5L92,23.4h12.8l-17.8,20l18.5,26.2H93.5L79.6,49.7l-7.3,8.1v11.8H61.6V11.2z"/>
	<path class="st0" d="M109.3,63.3c0-1.9,0.6-3.5,1.7-4.7c1.2-1.2,2.7-1.8,4.7-1.8c2,0,3.6,0.6,4.7,1.8c1.1,1.2,1.7,2.8,1.7,4.7
		c0,1.9-0.6,3.4-1.7,4.6c-1.2,1.2-2.7,1.8-4.7,1.8c-2,0-3.6-0.6-4.7-1.8C109.9,66.7,109.3,65.2,109.3,63.3z"/>
	<path class="st0" d="M149.3,59.6c0-2.4,0.4-4.6,1.3-6.6c0.9-2,2.1-3.8,3.5-5.4c1.4-1.6,3.1-3.1,4.9-4.5c1.8-1.3,3.6-2.6,5.4-3.8
		c1.4-1,2.8-1.9,4.1-2.8c1.3-0.9,2.5-1.8,3.5-2.7c1-0.9,1.8-1.8,2.4-2.8c0.6-1,0.9-2,0.9-3.1c0-1.9-0.7-3.5-2-4.8
		c-1.3-1.3-3.3-2-5.9-2c-2.5,0-4.6,0.8-6.2,2.4c-1.6,1.6-2.9,3.6-3.9,6.1l-9.2-4.5c1.8-4.1,4.3-7.3,7.5-9.6
		c3.2-2.4,7.2-3.5,11.9-3.5c2.9,0,5.6,0.4,7.9,1.2c2.3,0.8,4.3,2,5.9,3.4c1.6,1.4,2.9,3.1,3.7,5.1c0.8,1.9,1.3,4,1.3,6.3
		c0,2.2-0.4,4.2-1.3,6c-0.8,1.8-1.9,3.4-3.3,4.9c-1.4,1.5-2.9,2.8-4.6,4.1c-1.7,1.2-3.4,2.4-5.2,3.6c-1.5,1-2.9,2-4.3,2.9
		c-1.4,1-2.7,2-3.8,3c-1.1,1-2,2.1-2.7,3.3c-0.7,1.1-1,2.4-1,3.7h26v10.3h-36.7V59.6z"/>
	<path class="st0" d="M193.2,59.6c0-2.4,0.4-4.6,1.3-6.6c0.9-2,2.1-3.8,3.5-5.4c1.4-1.6,3.1-3.1,4.9-4.5c1.8-1.3,3.6-2.6,5.4-3.8
		c1.4-1,2.8-1.9,4.1-2.8c1.3-0.9,2.5-1.8,3.5-2.7c1-0.9,1.8-1.8,2.4-2.8c0.6-1,0.9-2,0.9-3.1c0-1.9-0.7-3.5-2-4.8
		c-1.3-1.3-3.3-2-5.9-2c-2.5,0-4.6,0.8-6.2,2.4c-1.6,1.6-2.9,3.6-3.9,6.1l-9.2-4.5c1.8-4.1,4.3-7.3,7.5-9.6
		c3.2-2.4,7.2-3.5,11.9-3.5c2.9,0,5.6,0.4,7.9,1.2c2.3,0.8,4.3,2,5.9,3.4c1.6,1.4,2.9,3.1,3.7,5.1c0.8,1.9,1.3,4,1.3,6.3
		c0,2.2-0.4,4.2-1.3,6c-0.8,1.8-1.9,3.4-3.3,4.9c-1.4,1.5-2.9,2.8-4.6,4.1c-1.7,1.2-3.4,2.4-5.2,3.6c-1.5,1-2.9,2-4.3,2.9
		c-1.4,1-2.7,2-3.8,3c-1.1,1-2,2.1-2.7,3.3c-0.7,1.1-1,2.4-1,3.7h26v10.3h-36.7V59.6z"/>
	<path class="st0" d="M238.7,62.7h9.4l-5.5,16.1h-6.6L238.7,62.7z"/>
	<path class="st0" d="M275.6,49.8c-1.1,0.3-2.2,0.5-3.3,0.5c-2.5,0-4.9-0.5-7.1-1.4c-2.2-0.9-4.2-2.2-5.9-3.9c-1.7-1.7-3-3.7-4-6
		c-1-2.3-1.5-4.9-1.5-7.8c0-2.9,0.5-5.5,1.6-7.9c1.1-2.4,2.5-4.4,4.3-6.1c1.8-1.7,4-3,6.5-3.9c2.5-0.9,5.2-1.4,8-1.4
		c3,0,5.8,0.5,8.3,1.5c2.5,1,4.7,2.4,6.5,4.1c1.8,1.7,3.2,3.8,4.3,6.2c1,2.4,1.5,4.9,1.5,7.6c0,2.7-0.4,5.3-1.2,7.9
		c-0.8,2.6-1.9,4.9-3.2,6.9l-14.8,23.6h-12.6L275.6,49.8z M274.4,41c1.4,0,2.7-0.3,3.9-0.8c1.2-0.5,2.3-1.2,3.2-2.1
		c0.9-0.9,1.6-1.9,2.1-3.1c0.5-1.2,0.8-2.5,0.8-3.9c0-1.3-0.3-2.6-0.8-3.8c-0.5-1.2-1.2-2.2-2.1-3.1c-0.9-0.9-1.9-1.6-3.2-2.1
		c-1.2-0.5-2.5-0.8-3.9-0.8c-1.3,0-2.6,0.3-3.8,0.8c-1.2,0.5-2.3,1.3-3.2,2.2c-0.9,0.9-1.6,2-2.2,3.2c-0.6,1.2-0.8,2.5-0.8,3.8
		c0,1.4,0.3,2.6,0.8,3.8c0.6,1.2,1.3,2.2,2.2,3.1c0.9,0.9,2,1.6,3.2,2.1C271.8,40.8,273.1,41,274.4,41z"/>
	<path class="st0" d="M321.5,49.8c-1.1,0.3-2.2,0.5-3.3,0.5c-2.5,0-4.9-0.5-7.1-1.4c-2.2-0.9-4.2-2.2-5.9-3.9c-1.7-1.7-3-3.7-4-6
		c-1-2.3-1.5-4.9-1.5-7.8c0-2.9,0.5-5.5,1.6-7.9c1.1-2.4,2.5-4.4,4.3-6.1c1.8-1.7,4-3,6.5-3.9c2.5-0.9,5.2-1.4,8-1.4
		c3,0,5.8,0.5,8.3,1.5c2.5,1,4.7,2.4,6.5,4.1c1.8,1.7,3.2,3.8,4.3,6.2c1,2.4,1.5,4.9,1.5,7.6c0,2.7-0.4,5.3-1.2,7.9
		c-0.8,2.6-1.9,4.9-3.2,6.9l-14.8,23.6h-12.6L321.5,49.8z M320.4,41c1.4,0,2.7-0.3,3.9-0.8c1.2-0.5,2.3-1.2,3.2-2.1
		c0.9-0.9,1.6-1.9,2.1-3.1c0.5-1.2,0.8-2.5,0.8-3.9c0-1.3-0.3-2.6-0.8-3.8c-0.5-1.2-1.2-2.2-2.1-3.1c-0.9-0.9-1.9-1.6-3.2-2.1
		c-1.2-0.5-2.5-0.8-3.9-0.8c-1.3,0-2.6,0.3-3.8,0.8c-1.2,0.5-2.3,1.3-3.2,2.2c-0.9,0.9-1.6,2-2.2,3.2c-0.6,1.2-0.8,2.5-0.8,3.8
		c0,1.4,0.3,2.6,0.8,3.8c0.6,1.2,1.3,2.2,2.2,3.1c0.9,0.9,2,1.6,3.2,2.1C317.8,40.8,319,41,320.4,41z"/>
	<path class="st0" d="M367.5,49.8c-1.1,0.3-2.2,0.5-3.3,0.5c-2.5,0-4.9-0.5-7.1-1.4c-2.2-0.9-4.2-2.2-5.9-3.9c-1.7-1.7-3-3.7-4-6
		c-1-2.3-1.5-4.9-1.5-7.8c0-2.9,0.5-5.5,1.6-7.9c1.1-2.4,2.5-4.4,4.3-6.1c1.8-1.7,4-3,6.5-3.9c2.5-0.9,5.2-1.4,8-1.4
		c3,0,5.8,0.5,8.3,1.5c2.5,1,4.7,2.4,6.5,4.1s3.2,3.8,4.3,6.2c1,2.4,1.5,4.9,1.5,7.6c0,2.7-0.4,5.3-1.2,7.9
		c-0.8,2.6-1.9,4.9-3.2,6.9l-14.8,23.6h-12.6L367.5,49.8z M366.3,41c1.4,0,2.7-0.3,3.9-0.8c1.2-0.5,2.3-1.2,3.2-2.1
		c0.9-0.9,1.6-1.9,2.1-3.1c0.5-1.2,0.8-2.5,0.8-3.9c0-1.3-0.3-2.6-0.8-3.8c-0.5-1.2-1.2-2.2-2.1-3.1c-0.9-0.9-1.9-1.6-3.2-2.1
		c-1.2-0.5-2.5-0.8-3.9-0.8c-1.3,0-2.6,0.3-3.8,0.8c-1.2,0.5-2.3,1.3-3.2,2.2c-0.9,0.9-1.6,2-2.2,3.2c-0.6,1.2-0.8,2.5-0.8,3.8
		c0,1.4,0.3,2.6,0.8,3.8c0.6,1.2,1.3,2.2,2.2,3.1c0.9,0.9,2,1.6,3.2,2.1C363.7,40.8,365,41,366.3,41z"/>
</g>
</svg>
