<?xml version="1.0" encoding="utf-8"?>
<!-- Generator: Adobe Illustrator 24.0.2, SVG Export Plug-In . SVG Version: 6.00 Build 0)  -->
<svg version="1.1" id="Layer_1" xmlns="http://www.w3.org/2000/svg" xmlns:xlink="http://www.w3.org/1999/xlink" x="0px" y="0px"
	 viewBox="0 0 539 121.3" style="enable-background:new 0 0 539 121.3;" xml:space="preserve">
<style type="text/css">
	.st0{fill:#FFFFFF;}
</style>
<g>
	<path class="st0" d="M19.2,44.7c-2.6,0-4.8-0.5-6.6-1.5c-1.8-1-3.3-2.2-4.6-3.7l4.9-3.7c0.7,1.2,1.6,2.1,2.7,2.8
		c1.1,0.6,2.3,1,3.6,1c1.4,0,2.5-0.4,3.2-1.1c0.7-0.8,1.1-1.6,1.1-2.6c0-0.6-0.2-1.1-0.5-1.5c-0.3-0.4-0.8-0.8-1.3-1.1
		c-0.6-0.3-1.2-0.6-1.9-0.8c-0.7-0.2-1.5-0.5-2.2-0.7c-1-0.3-1.9-0.6-2.9-1c-1-0.4-1.8-0.8-2.6-1.4c-0.8-0.6-1.4-1.3-1.9-2.2
		c-0.5-0.9-0.7-2-0.7-3.3c0-1.1,0.2-2.2,0.7-3.1c0.5-1,1.1-1.8,2-2.5c0.9-0.7,1.9-1.3,3-1.7c1.2-0.4,2.4-0.6,3.8-0.6
		c1.2,0,2.2,0.1,3.1,0.3c0.9,0.2,1.8,0.5,2.6,0.9c0.8,0.4,1.5,0.8,2.1,1.3c0.6,0.5,1.3,1.1,1.8,1.7l-4.4,3.4c-1.2-1.9-3-2.8-5.2-2.8
		c-1.3,0-2.3,0.3-3,0.9c-0.7,0.6-1,1.4-1,2.3c0,0.6,0.2,1,0.5,1.4c0.3,0.4,0.7,0.7,1.3,1c0.5,0.3,1.2,0.6,1.9,0.8
		c0.7,0.2,1.5,0.5,2.2,0.7c1,0.3,1.9,0.7,2.9,1.1c1,0.4,1.9,0.9,2.7,1.5c0.8,0.6,1.4,1.4,1.9,2.3c0.5,0.9,0.7,2,0.7,3.4
		c0,1.1-0.2,2.2-0.7,3.2c-0.4,1-1.1,2-1.9,2.8c-0.8,0.8-1.9,1.5-3.1,2C22.2,44.4,20.8,44.7,19.2,44.7z"/>
	<path class="st0" d="M43.6,44.7c-1.8,0-3.5-0.3-5-0.9c-1.5-0.6-2.8-1.4-3.8-2.4c-1.1-1-1.9-2.3-2.5-3.7c-0.6-1.4-0.9-2.9-0.9-4.5
		c0-1.6,0.3-3.1,0.9-4.6c0.6-1.4,1.5-2.6,2.5-3.7c1.1-1,2.3-1.9,3.8-2.5c1.5-0.6,3-0.9,4.7-0.9c1.7,0,3.3,0.3,4.7,0.8
		c1.5,0.6,2.7,1.3,3.8,2.3c1,1,1.9,2.2,2.5,3.5c0.6,1.4,0.9,2.8,0.9,4.4v1.9H36.5c0.4,1.6,1.2,2.9,2.4,3.9c1.2,1,2.8,1.5,4.7,1.5
		c1.5,0,2.8-0.4,3.9-1.1c1.1-0.7,1.9-1.7,2.5-3l4.4,2.5c-1,1.9-2.4,3.4-4.2,4.5C48.3,44.1,46.2,44.7,43.6,44.7z M43.4,26.3
		c-1.6,0-3,0.4-4.2,1.1c-1.2,0.7-2,1.6-2.5,2.8h13.1c-0.4-1.3-1.2-2.2-2.3-2.9C46.4,26.6,45,26.3,43.4,26.3z"/>
	<path class="st0" d="M75.7,41.1c-0.8,1.1-1.9,2-3.2,2.6c-1.3,0.6-2.7,0.9-4.3,0.9c-1.4,0-2.8-0.3-4.1-0.8c-1.4-0.5-2.6-1.3-3.6-2.3
		c-1.1-1-1.9-2.2-2.6-3.6c-0.7-1.4-1-3.1-1-4.9c0-1.8,0.3-3.5,1-4.9c0.6-1.4,1.5-2.6,2.6-3.6c1.1-1,2.3-1.7,3.7-2.3
		c1.4-0.5,2.8-0.8,4.2-0.8c1.5,0,2.9,0.3,4.2,0.9c1.3,0.6,2.3,1.4,3.2,2.4v-3.3H81v22.2c0,1.6-0.3,3.1-0.8,4.5
		c-0.5,1.4-1.3,2.6-2.3,3.7c-1,1.1-2.2,1.9-3.7,2.5c-1.5,0.6-3.2,0.9-5.1,0.9c-1.5,0-2.9-0.2-4.1-0.5c-1.2-0.3-2.3-0.8-3.3-1.4
		c-1-0.6-1.8-1.3-2.6-2.1c-0.7-0.8-1.4-1.7-1.9-2.7l4.7-2.9c0.8,1.5,1.8,2.7,2.8,3.5c1,0.8,2.5,1.1,4.3,1.1c1,0,1.9-0.2,2.7-0.6
		c0.8-0.4,1.5-0.9,2.1-1.5c0.6-0.6,1-1.3,1.3-2.1c0.3-0.8,0.5-1.7,0.5-2.5V41.1z M69.1,39.8c1,0,1.9-0.2,2.8-0.5
		c0.8-0.3,1.6-0.8,2.2-1.4c0.6-0.6,1.1-1.3,1.4-2.1c0.4-0.8,0.5-1.7,0.5-2.6c0-0.9-0.2-1.8-0.5-2.6c-0.4-0.8-0.8-1.5-1.4-2.1
		c-0.6-0.6-1.3-1.1-2.2-1.4c-0.8-0.3-1.8-0.5-2.8-0.5c-1,0-1.9,0.2-2.7,0.5c-0.9,0.3-1.6,0.8-2.2,1.4c-0.6,0.6-1.1,1.3-1.5,2.1
		c-0.4,0.8-0.5,1.7-0.5,2.6c0,0.9,0.2,1.8,0.5,2.6c0.4,0.8,0.8,1.5,1.5,2.1c0.6,0.6,1.4,1.1,2.2,1.4C67.2,39.6,68.1,39.8,69.1,39.8z
		"/>
	<path class="st0" d="M84.3,21.6h5.3v3c0.7-0.9,1.7-1.7,2.8-2.2c1.1-0.5,2.4-0.8,3.8-0.8c1.8,0,3.3,0.3,4.6,1
		c1.2,0.7,2.2,1.6,2.9,2.9c0.8-1.2,1.8-2.1,3.1-2.9c1.3-0.7,2.8-1.1,4.4-1.1c3.1,0,5.4,0.8,7,2.5c1.6,1.7,2.4,4,2.4,6.9v13.6h-5.4
		V31.5c0-1.6-0.4-2.9-1.3-3.9c-0.8-1-2.1-1.4-3.7-1.4c-1.4,0-2.7,0.5-3.6,1.5c-1,1-1.5,2.4-1.5,4.4v12.6h-5.4V31.4
		c0-1.6-0.4-2.9-1.2-3.8c-0.8-0.9-2-1.4-3.6-1.4c-1.5,0-2.7,0.5-3.7,1.5c-1,1-1.5,2.5-1.5,4.5v12.5h-5.3V21.6z"/>
	<path class="st0" d="M135,44.7c-1.8,0-3.5-0.3-5-0.9c-1.5-0.6-2.8-1.4-3.8-2.4c-1.1-1-1.9-2.3-2.5-3.7c-0.6-1.4-0.9-2.9-0.9-4.5
		c0-1.6,0.3-3.1,0.9-4.6c0.6-1.4,1.5-2.6,2.5-3.7c1.1-1,2.3-1.9,3.8-2.5c1.5-0.6,3-0.9,4.7-0.9c1.7,0,3.3,0.3,4.7,0.8
		s2.7,1.3,3.8,2.3c1,1,1.9,2.2,2.5,3.5c0.6,1.4,0.9,2.8,0.9,4.4v1.9h-18.7c0.4,1.6,1.2,2.9,2.4,3.9c1.2,1,2.8,1.5,4.7,1.5
		c1.5,0,2.8-0.4,3.9-1.1c1.1-0.7,1.9-1.7,2.5-3l4.4,2.5c-1,1.9-2.4,3.4-4.2,4.5C139.8,44.1,137.6,44.7,135,44.7z M134.8,26.3
		c-1.6,0-3,0.4-4.2,1.1c-1.2,0.7-2,1.6-2.5,2.8h13.1c-0.4-1.3-1.2-2.2-2.3-2.9C137.8,26.6,136.5,26.3,134.8,26.3z"/>
	<path class="st0" d="M149,21.6h5.3v3.1c0.8-1,1.7-1.7,2.9-2.3c1.2-0.6,2.5-0.9,4-0.9c2.9,0,5.1,0.8,6.7,2.5
		c1.6,1.7,2.4,4.1,2.4,7.1v13.4h-5.4V31.8c0-1.7-0.4-3.1-1.3-4.1c-0.9-1-2.2-1.5-3.9-1.5c-1.5,0-2.8,0.5-3.8,1.6
		c-1,1.1-1.6,2.6-1.6,4.5v12.3H149V21.6z"/>
	<path class="st0" d="M171.6,21.6h3.9v-3.5l5.4-3.7v7.2h4.7v4.8h-4.7V35c0,1,0.1,1.8,0.2,2.4s0.3,1.1,0.6,1.4
		c0.3,0.3,0.8,0.5,1.4,0.6c0.6,0.1,1.4,0.2,2.5,0.2v5h-0.7c-1.8,0-3.3-0.2-4.5-0.5c-1.2-0.3-2.1-0.8-2.9-1.6c-0.7-0.7-1.2-1.7-1.5-3
		c-0.3-1.2-0.5-2.7-0.5-4.6v-8.7h-3.9V21.6z"/>
	<path class="st0" d="M210.6,44.7c-1.6,0-3-0.3-4.3-0.9c-1.3-0.6-2.4-1.4-3.2-2.4v3.3h-5.3V15.5h5.3V25c0.8-1,1.9-1.8,3.2-2.5
		c1.3-0.6,2.7-0.9,4.3-0.9c1.4,0,2.8,0.3,4.2,0.8c1.4,0.5,2.6,1.3,3.6,2.3c1,1,1.9,2.2,2.5,3.6c0.6,1.4,1,3.1,1,4.9
		c0,1.8-0.3,3.4-1,4.9c-0.7,1.4-1.5,2.6-2.6,3.6c-1.1,1-2.3,1.7-3.6,2.3C213.3,44.4,212,44.7,210.6,44.7z M209.7,39.8
		c1,0,1.9-0.2,2.7-0.5c0.8-0.3,1.6-0.8,2.2-1.4c0.6-0.6,1.1-1.3,1.5-2.1c0.4-0.8,0.5-1.7,0.5-2.6c0-0.9-0.2-1.8-0.5-2.6
		c-0.4-0.8-0.8-1.5-1.5-2.1c-0.6-0.6-1.4-1.1-2.2-1.4c-0.8-0.3-1.7-0.5-2.7-0.5c-1,0-1.9,0.2-2.7,0.5c-0.8,0.3-1.6,0.8-2.2,1.4
		c-0.6,0.6-1.1,1.3-1.4,2.1c-0.3,0.8-0.5,1.7-0.5,2.6c0,0.9,0.2,1.8,0.5,2.6c0.3,0.8,0.8,1.5,1.4,2.1c0.6,0.6,1.3,1.1,2.2,1.4
		C207.8,39.6,208.7,39.8,209.7,39.8z"/>
	<path class="st0" d="M235.7,44.7c-1.8,0-3.5-0.3-5-0.9c-1.5-0.6-2.8-1.4-3.8-2.4c-1.1-1-1.9-2.3-2.5-3.7c-0.6-1.4-0.9-2.9-0.9-4.5
		c0-1.6,0.3-3.1,0.9-4.6c0.6-1.4,1.5-2.6,2.5-3.7c1.1-1,2.3-1.9,3.8-2.5c1.5-0.6,3-0.9,4.7-0.9c1.7,0,3.3,0.3,4.7,0.8
		c1.5,0.6,2.7,1.3,3.8,2.3c1,1,1.9,2.2,2.5,3.5c0.6,1.4,0.9,2.8,0.9,4.4v1.9h-18.7c0.4,1.6,1.2,2.9,2.4,3.9c1.2,1,2.8,1.5,4.7,1.5
		c1.5,0,2.8-0.4,3.9-1.1c1.1-0.7,1.9-1.7,2.5-3l4.4,2.5c-1,1.9-2.4,3.4-4.2,4.5C240.4,44.1,238.2,44.7,235.7,44.7z M235.5,26.3
		c-1.6,0-3,0.4-4.2,1.1c-1.2,0.7-2,1.6-2.5,2.8h13.1c-0.4-1.3-1.2-2.2-2.3-2.9C238.5,26.6,237.1,26.3,235.5,26.3z"/>
	<path class="st0" d="M258.3,44.7c-2.5,0-4.7-0.5-6.3-1.4c-1.7-0.9-3-2.3-3.9-4.1l4.9-2.2c0.6,1,1.3,1.8,2.2,2.3
		c0.9,0.5,2,0.8,3.3,0.8c1.3,0,2.3-0.3,3-0.8c0.7-0.5,1-1.2,1-1.9c0-0.4-0.2-0.7-0.5-1c-0.3-0.3-0.7-0.5-1.2-0.7
		c-0.5-0.2-1.1-0.3-1.7-0.5s-1.3-0.3-2-0.4c-1-0.2-2-0.4-2.9-0.7c-1-0.3-1.8-0.7-2.6-1.1c-0.8-0.5-1.4-1.1-1.8-1.9
		c-0.5-0.8-0.7-1.7-0.7-2.9c0-0.9,0.2-1.7,0.6-2.5c0.4-0.8,1-1.5,1.8-2.2c0.8-0.6,1.7-1.1,2.9-1.5c1.1-0.4,2.4-0.5,3.7-0.5
		c2.3,0,4.2,0.4,5.8,1.3c1.5,0.9,2.7,2,3.6,3.5l-4.5,2.1c-0.5-0.8-1.1-1.4-2-1.8c-0.8-0.4-1.8-0.7-2.9-0.7c-1.3,0-2.2,0.2-2.8,0.7
		c-0.6,0.5-0.9,1-0.9,1.7c0,0.7,0.4,1.2,1.3,1.6c0.9,0.3,2.2,0.6,3.9,1c0.9,0.2,1.9,0.4,2.9,0.7c1,0.3,1.8,0.7,2.6,1.2
		c0.8,0.5,1.4,1.1,1.9,1.9c0.5,0.8,0.7,1.7,0.7,2.9c0,0.8-0.2,1.6-0.6,2.4c-0.4,0.8-0.9,1.6-1.7,2.3s-1.8,1.3-2.9,1.7
		C261.4,44.5,260,44.7,258.3,44.7z"/>
	<path class="st0" d="M268.8,21.6h3.9v-3.5l5.4-3.7v7.2h4.7v4.8h-4.7V35c0,1,0.1,1.8,0.2,2.4s0.3,1.1,0.6,1.4
		c0.3,0.3,0.8,0.5,1.4,0.6c0.6,0.1,1.4,0.2,2.5,0.2v5h-0.7c-1.8,0-3.3-0.2-4.5-0.5c-1.2-0.3-2.1-0.8-2.9-1.6c-0.7-0.7-1.2-1.7-1.5-3
		c-0.3-1.2-0.5-2.7-0.5-4.6v-8.7h-3.9V21.6z"/>
	<path class="st0" d="M9.5,67.5h16.3v5.1H14.9v6.6h10.9v5.1H14.9v11.9H9.5V67.5z"/>
	<path class="st0" d="M45.2,84.4h-11v11.8h-5.4V67.5h5.4v11.8h11V67.5h5.4v28.7h-5.4V84.4z"/>
	<path class="st0" d="M53.9,67.5h7.8c2.4,0,4.6,0.4,6.5,1.1c1.9,0.7,3.5,1.7,4.8,3c1.3,1.3,2.3,2.8,3,4.5c0.7,1.7,1,3.6,1,5.7
		c0,2-0.4,3.9-1.1,5.7c-0.7,1.8-1.8,3.3-3.1,4.5s-2.9,2.3-4.7,3c-1.8,0.7-3.8,1.1-6,1.1h-8.1V67.5z M59.3,72.5v18.8h2.1
		c1.6,0,3-0.2,4.3-0.7c1.3-0.5,2.3-1.1,3.2-2c0.9-0.9,1.6-1.8,2-3c0.5-1.1,0.7-2.4,0.7-3.7c0-1.4-0.2-2.7-0.6-3.8
		c-0.4-1.1-1.1-2.1-1.9-3c-0.9-0.8-2-1.5-3.3-1.9c-1.3-0.5-2.9-0.7-4.6-0.7H59.3z"/>
	<path class="st0" d="M79.2,79.6h5.1v-5h4.4v5h5v4.5h-5v5h-4.4v-5h-5.1V79.6z"/>
	<path class="st0" d="M115,96.3c-2.5,0-4.7-0.5-6.3-1.4c-1.7-0.9-3-2.3-3.9-4.1l4.9-2.2c0.6,1,1.3,1.8,2.2,2.3
		c0.9,0.5,2,0.8,3.3,0.8c1.3,0,2.3-0.3,3-0.8c0.7-0.5,1-1.2,1-1.9c0-0.4-0.2-0.7-0.5-1c-0.3-0.2-0.7-0.5-1.2-0.7
		c-0.5-0.2-1.1-0.3-1.7-0.5c-0.7-0.1-1.3-0.3-2-0.4c-1-0.2-2-0.4-2.9-0.7c-1-0.3-1.8-0.7-2.6-1.1c-0.8-0.5-1.4-1.1-1.8-1.9
		c-0.5-0.8-0.7-1.7-0.7-2.9c0-0.9,0.2-1.7,0.6-2.5c0.4-0.8,1-1.5,1.8-2.2c0.8-0.6,1.7-1.1,2.9-1.5c1.1-0.4,2.4-0.5,3.7-0.5
		c2.3,0,4.2,0.4,5.8,1.3c1.5,0.9,2.7,2,3.6,3.5l-4.5,2.1c-0.5-0.8-1.1-1.4-2-1.8c-0.8-0.4-1.8-0.7-2.9-0.7c-1.3,0-2.2,0.2-2.8,0.7
		c-0.6,0.5-0.9,1-0.9,1.7c0,0.7,0.4,1.2,1.3,1.6c0.9,0.3,2.2,0.6,3.9,1c0.9,0.2,1.9,0.4,2.9,0.7s1.8,0.7,2.6,1.2
		c0.8,0.5,1.4,1.1,1.9,1.9c0.5,0.8,0.7,1.7,0.7,2.9c0,0.8-0.2,1.6-0.6,2.4c-0.4,0.8-0.9,1.6-1.7,2.3c-0.8,0.7-1.8,1.3-2.9,1.7
		C118.1,96.1,116.7,96.3,115,96.3z"/>
	<path class="st0" d="M136,67.5h5.4l10.2,28.7h-5.6l-1.8-5.1h-11.1l-1.8,5.1h-5.6L136,67.5z M135,86h7.6l-3.8-10.9L135,86z"/>
	<path class="st0" d="M153.9,67.5h5.3l8.7,12.1l9.1-12.1h5.1v28.7h-5.4V76.1L167.9,88l-8.6-11.7v20h-5.4V67.5z"/>
	<path class="st0" d="M199.2,96.3c-2,0-4-0.4-5.7-1.1c-1.8-0.8-3.3-1.8-4.7-3.1c-1.3-1.3-2.4-2.8-3.1-4.6c-0.8-1.8-1.1-3.6-1.1-5.6
		c0-2,0.4-3.9,1.1-5.6c0.8-1.7,1.8-3.3,3.1-4.6c1.3-1.3,2.9-2.3,4.7-3.1c1.8-0.8,3.7-1.1,5.7-1.1c2,0,4,0.4,5.7,1.1
		c1.8,0.8,3.3,1.8,4.7,3.1c1.3,1.3,2.4,2.8,3.2,4.6c0.8,1.7,1.1,3.6,1.1,5.6c0,2-0.4,3.9-1.1,5.6c-0.8,1.8-1.8,3.3-3.2,4.6
		c-1.3,1.3-2.9,2.3-4.7,3.1C203.2,95.9,201.3,96.3,199.2,96.3z M199.2,91c1.3,0,2.5-0.2,3.7-0.7c1.1-0.5,2.1-1.1,3-2
		c0.9-0.8,1.5-1.8,2-2.9c0.5-1.1,0.7-2.3,0.7-3.6c0-1.3-0.2-2.5-0.7-3.6c-0.5-1.1-1.2-2.1-2-2.9c-0.9-0.8-1.9-1.5-3-2
		c-1.1-0.5-2.4-0.7-3.7-0.7c-1.3,0-2.5,0.2-3.7,0.7c-1.1,0.5-2.1,1.1-3,2c-0.8,0.8-1.5,1.8-2,2.9c-0.5,1.1-0.7,2.3-0.7,3.6
		c0,1.3,0.2,2.4,0.7,3.6c0.5,1.1,1.1,2.1,2,2.9c0.8,0.8,1.8,1.5,3,2C196.7,90.8,197.9,91,199.2,91z"/>
	<path class="st0" d="M216.4,67.5h5.4v23.6h10.5v5.1h-15.9V67.5z"/>
	<path class="st0" d="M235.3,67.5h17v5.1h-11.7v6.6h11.7v5.1h-11.7v6.8h11.7v5.1h-17V67.5z"/>
	<path class="st0" d="M255.4,67.5h7.8c2.4,0,4.6,0.4,6.5,1.1c1.9,0.7,3.5,1.7,4.8,3c1.3,1.3,2.3,2.8,3,4.5c0.7,1.7,1,3.6,1,5.7
		c0,2-0.4,3.9-1.1,5.7c-0.7,1.8-1.8,3.3-3.1,4.5s-2.9,2.3-4.7,3c-1.8,0.7-3.8,1.1-6,1.1h-8.1V67.5z M260.7,72.5v18.8h2.1
		c1.6,0,3-0.2,4.3-0.7c1.3-0.5,2.3-1.1,3.2-2c0.9-0.9,1.6-1.8,2-3c0.5-1.1,0.7-2.4,0.7-3.7c0-1.4-0.2-2.7-0.6-3.8
		c-0.4-1.1-1.1-2.1-1.9-3c-0.9-0.8-2-1.5-3.3-1.9c-1.3-0.5-2.9-0.7-4.6-0.7H260.7z"/>
	<path class="st0" d="M300.5,86.4c-0.6,0.2-1.1,0.2-1.7,0.2c-1.3,0-2.4-0.2-3.6-0.7c-1.1-0.5-2.1-1.1-2.9-2c-0.8-0.8-1.5-1.8-2-3
		s-0.7-2.4-0.7-3.9c0-1.4,0.3-2.8,0.8-3.9c0.5-1.2,1.2-2.2,2.2-3c0.9-0.8,2-1.5,3.2-2c1.2-0.5,2.6-0.7,4-0.7c1.5,0,2.9,0.2,4.1,0.7
		c1.2,0.5,2.3,1.2,3.2,2c0.9,0.9,1.6,1.9,2.1,3.1c0.5,1.2,0.8,2.4,0.8,3.8c0,1.3-0.2,2.6-0.6,3.9s-0.9,2.4-1.6,3.4l-7.4,11.8h-6.3
		L300.5,86.4z M300,82c0.7,0,1.3-0.1,1.9-0.4c0.6-0.3,1.1-0.6,1.6-1c0.4-0.4,0.8-1,1.1-1.6c0.3-0.6,0.4-1.2,0.4-1.9
		c0-0.7-0.1-1.3-0.4-1.9c-0.3-0.6-0.6-1.1-1.1-1.6c-0.4-0.4-1-0.8-1.6-1.1c-0.6-0.3-1.2-0.4-1.9-0.4c-0.7,0-1.3,0.1-1.9,0.4
		c-0.6,0.3-1.1,0.6-1.6,1.1c-0.4,0.5-0.8,1-1.1,1.6c-0.3,0.6-0.4,1.2-0.4,1.9c0,0.7,0.1,1.3,0.4,1.9c0.3,0.6,0.6,1.1,1.1,1.5
		c0.4,0.4,1,0.8,1.6,1C298.7,81.9,299.3,82,300,82z"/>
	<path class="st0" d="M322.6,96.3c-1.6,0-3-0.2-4.2-0.7c-1.2-0.4-2.2-1.1-3.1-1.9c-0.8-0.8-1.5-1.8-1.9-2.9
		c-0.4-1.1-0.6-2.4-0.6-3.7V76.8c0-1.3,0.2-2.6,0.7-3.7c0.5-1.1,1.1-2.1,2-3c0.9-0.8,1.9-1.5,3.1-2c1.2-0.5,2.5-0.7,4-0.7
		c1.5,0,2.8,0.2,4,0.7c1.2,0.5,2.2,1.2,3.1,2c0.9,0.8,1.5,1.8,2,3c0.5,1.1,0.7,2.4,0.7,3.6v10.3c0,1.4-0.2,2.6-0.7,3.7
		c-0.4,1.1-1.1,2.1-1.9,2.9c-0.8,0.8-1.8,1.4-3.1,1.9C325.5,96.1,324.1,96.3,322.6,96.3z M322.5,91c1.4,0,2.5-0.4,3.3-1.2
		c0.8-0.8,1.1-1.8,1.1-2.9v-9.8c0-1.3-0.4-2.4-1.1-3.1c-0.7-0.8-1.8-1.2-3.2-1.2c-1.4,0-2.5,0.4-3.3,1.3c-0.8,0.8-1.1,1.9-1.1,3.1
		v9.8c0,1.2,0.4,2.2,1.1,3C320,90.6,321.1,91,322.5,91z"/>
	<path class="st0" d="M352.2,84.4h-11v11.8h-5.4V67.5h5.4v11.8h11V67.5h5.4v28.7h-5.4V84.4z"/>
	<path class="st0" d="M359.9,91.4l13.4-13.5h-13.1v-4.7h20v4.8l-13.4,13.5h13.6v4.7h-20.6V91.4z"/>
	<path class="st0" d="M392.8,67.5h7.8c2.4,0,4.6,0.4,6.5,1.1c1.9,0.7,3.5,1.7,4.8,3c1.3,1.3,2.3,2.8,3,4.5c0.7,1.7,1,3.6,1,5.7
		c0,2-0.4,3.9-1.1,5.7c-0.7,1.8-1.8,3.3-3.1,4.5c-1.3,1.3-2.9,2.3-4.7,3c-1.8,0.7-3.8,1.1-6,1.1h-8.1V67.5z M398.2,72.5v18.8h2.1
		c1.6,0,3-0.2,4.3-0.7c1.3-0.5,2.3-1.1,3.2-2c0.9-0.9,1.6-1.8,2-3c0.5-1.1,0.7-2.4,0.7-3.7c0-1.4-0.2-2.7-0.6-3.8
		c-0.4-1.1-1.1-2.1-1.9-3c-0.9-0.8-2-1.5-3.3-1.9c-1.3-0.5-2.9-0.7-4.6-0.7H398.2z"/>
	<path class="st0" d="M417.9,67.6c0-1,0.3-1.8,0.9-2.4c0.6-0.6,1.4-0.9,2.4-0.9c1.1,0,1.9,0.3,2.5,0.9c0.6,0.6,0.9,1.4,0.9,2.4
		c0,1-0.3,1.8-0.9,2.4c-0.6,0.6-1.4,0.9-2.5,0.9c-1.1,0-1.9-0.3-2.5-0.9C418.2,69.4,417.9,68.6,417.9,67.6z M418.6,73.2h5.4v23h-5.4
		V73.2z"/>
	<path class="st0" d="M435.7,96.3c-2.5,0-4.7-0.5-6.3-1.4c-1.7-0.9-3-2.3-3.9-4.1l4.9-2.2c0.6,1,1.3,1.8,2.2,2.3
		c0.9,0.5,2,0.8,3.3,0.8c1.3,0,2.3-0.3,3-0.8c0.7-0.5,1-1.2,1-1.9c0-0.4-0.1-0.7-0.5-1c-0.3-0.2-0.7-0.5-1.2-0.7
		c-0.5-0.2-1.1-0.3-1.7-0.5c-0.7-0.1-1.3-0.3-2-0.4c-1-0.2-2-0.4-2.9-0.7c-1-0.3-1.8-0.7-2.6-1.1c-0.8-0.5-1.4-1.1-1.8-1.9
		c-0.5-0.8-0.7-1.7-0.7-2.9c0-0.9,0.2-1.7,0.6-2.5c0.4-0.8,1-1.5,1.8-2.2c0.8-0.6,1.7-1.1,2.9-1.5c1.1-0.4,2.4-0.5,3.7-0.5
		c2.3,0,4.2,0.4,5.8,1.3c1.5,0.9,2.7,2,3.6,3.5l-4.5,2.1c-0.5-0.8-1.1-1.4-2-1.8c-0.8-0.4-1.8-0.7-2.9-0.7c-1.3,0-2.2,0.2-2.8,0.7
		c-0.6,0.5-0.9,1-0.9,1.7c0,0.7,0.4,1.2,1.3,1.6c0.9,0.3,2.2,0.6,3.9,1c0.9,0.2,1.9,0.4,2.9,0.7c1,0.3,1.8,0.7,2.6,1.2
		c0.8,0.5,1.4,1.1,1.9,1.9c0.5,0.8,0.7,1.7,0.7,2.9c0,0.8-0.2,1.6-0.5,2.4c-0.4,0.8-0.9,1.6-1.7,2.3c-0.8,0.7-1.8,1.3-2.9,1.7
		C438.8,96.1,437.3,96.3,435.7,96.3z"/>
	<path class="st0" d="M460.2,96.3c-1.6,0-3-0.3-4.3-0.8c-1.3-0.6-2.4-1.3-3.2-2.4v13.7h-5.3V73.2h5.3v3.4c0.8-1,1.9-1.9,3.2-2.5
		c1.3-0.6,2.7-0.9,4.3-0.9c1.4,0,2.8,0.3,4.2,0.8c1.4,0.5,2.6,1.3,3.6,2.3c1,1,1.9,2.2,2.5,3.6c0.6,1.4,1,3.1,1,4.9
		c0,1.8-0.3,3.4-1,4.9c-0.7,1.4-1.5,2.6-2.6,3.6c-1.1,1-2.3,1.7-3.6,2.3C463,96,461.6,96.3,460.2,96.3z M459.4,91.4
		c1,0,1.9-0.2,2.7-0.5c0.8-0.3,1.6-0.8,2.2-1.4c0.6-0.6,1.1-1.3,1.5-2.1s0.5-1.7,0.5-2.6c0-0.9-0.2-1.8-0.5-2.6s-0.8-1.5-1.5-2.1
		c-0.6-0.6-1.4-1.1-2.2-1.4c-0.8-0.3-1.7-0.5-2.7-0.5c-1,0-1.9,0.2-2.8,0.5c-0.8,0.3-1.6,0.8-2.2,1.4c-0.6,0.6-1.1,1.3-1.4,2.1
		c-0.3,0.8-0.5,1.7-0.5,2.6c0,0.9,0.2,1.8,0.5,2.6c0.3,0.8,0.8,1.5,1.4,2.1c0.6,0.6,1.3,1.1,2.2,1.4
		C457.4,91.2,458.4,91.4,459.4,91.4z"/>
	<path class="st0" d="M473.7,67.1h5.4v29.1h-5.4V67.1z"/>
	<path class="st0" d="M492.7,96.3c-1.4,0-2.8-0.3-4.1-0.8c-1.4-0.5-2.6-1.3-3.6-2.3c-1.1-1-1.9-2.2-2.6-3.6c-0.7-1.4-1-3.1-1-4.9
		c0-1.8,0.3-3.5,1-4.9c0.6-1.4,1.5-2.6,2.6-3.6c1.1-1,2.3-1.7,3.7-2.3c1.4-0.5,2.8-0.8,4.2-0.8c1.5,0,2.9,0.3,4.2,0.8
		c1.3,0.5,2.3,1.3,3.2,2.3v-3h5.3v23h-5.3V93c-0.8,1-1.9,1.8-3.2,2.4C495.7,96,494.3,96.3,492.7,96.3z M493.6,91.4
		c1,0,1.9-0.2,2.8-0.5c0.8-0.3,1.6-0.8,2.2-1.4c0.6-0.6,1.1-1.3,1.4-2.1c0.4-0.8,0.5-1.7,0.5-2.6c0-0.9-0.2-1.8-0.5-2.6
		c-0.4-0.8-0.8-1.5-1.4-2.1c-0.6-0.6-1.3-1.1-2.2-1.4c-0.8-0.3-1.8-0.5-2.8-0.5c-1,0-1.9,0.2-2.7,0.5c-0.9,0.3-1.6,0.8-2.2,1.4
		c-0.6,0.6-1.1,1.3-1.5,2.1s-0.5,1.7-0.5,2.6c0,0.9,0.2,1.8,0.5,2.6s0.8,1.5,1.5,2.1c0.6,0.6,1.4,1.1,2.2,1.4
		C491.7,91.2,492.6,91.4,493.6,91.4z"/>
	<path class="st0" d="M516.7,95.2l-9.4-22h5.7l6.4,15.8l6.1-15.8h5.6l-13.7,33.6h-5.4L516.7,95.2z"/>
</g>
</svg>
